<svg width="40" height="40" viewBox="0 0 40 40" fill="none" xmlns="http://www.w3.org/2000/svg">
<path fill-rule="evenodd" clip-rule="evenodd" d="M20 0C8.9543 0 0 8.9543 0 20C0 31.0457 8.9543 40 20 40C31.0457 40 40 31.0457 40 20C40 8.9543 31.0457 0 20 0Z" fill="#262626"/>
<path fill-rule="evenodd" clip-rule="evenodd" d="M20 2C10.0589 2 2 10.0589 2 20C2 29.9411 10.0589 38 20 38C29.9411 38 38 29.9411 38 20C38 10.0589 29.9411 2 20 2ZM0 20C0 8.9543 8.9543 0 20 0C31.0457 0 40 8.9543 40 20C40 31.0457 31.0457 40 20 40C8.9543 40 0 31.0457 0 20Z" fill="#303030"/>
<mask id="mask0_5_168" style="mask-type:alpha" maskUnits="userSpaceOnUse" x="16" y="11" width="9" height="18">
<path fill-rule="evenodd" clip-rule="evenodd" d="M21.7189 28.4001V20.7366H24.1983L24.5667 17.7517H21.7189V15.8439C21.7189 14.9809 21.9499 14.3904 23.1428 14.3904H24.6667V11.7169C24.4044 11.678 23.4988 11.6001 22.4496 11.6001C20.2512 11.6001 18.7523 12.9952 18.7523 15.5519V17.7582H16.2667V20.7431H18.7523V28.4001H21.7189Z" fill="white"/>
</mask>
<g mask="url(#mask0_5_168)">
<path d="M7.86664 7.8667H32.1333V32.1334H7.86664V7.8667Z" fill="#737373"/>
</g>
</svg>
